# xmcd
#
# Track frame offsets:
#	150
#	19100
#	32917
#	44100
#	60255
#	72350
#	86947
#	106215
#	119647
#	133870
#
# Disc length: 1922
#
# Revision: 2
# Processed by: cddbd v1.5.1PL0 Copyright (c) Steve Scherf et al.
# Submitted via: audiograbber 1.82.02
# Normalized: r1:DSETVAR1
#
DISCID=9307800a
DTITLE=Various Artist - Country Ladies Of The 80's
DYEAR=1997
DGENRE=Country
TTITLE0=K.T. Oslin - 80's Ladies
TTITLE1=Patty Loveless - If My Heart Had Windows
TTITLE2=Tanya Tucker - Pecos Promenade
TTITLE3=Sylvia - The Matador
TTITLE4=Shelly West - Jose Cuervo
TTITLE5=Holly Dunn - Love Someone Like Me
TTITLE6=Crystal Gayle - Cry
TTITLE7=Janie Frickie - He's A Heartache (Looking For A Place To Happen)
TTITLE8=Charly McClain - Radio Heart
TTITLE9=Gail Davies - I'll Be There (If Ever You Want Me)
EXTD=
EXTT0=
EXTT1=
EXTT2=
EXTT3=
EXTT4=
EXTT5=
EXTT6=
EXTT7=
EXTT8=
EXTT9=
PLAYORDER=
